{
  "accessors": [
    {
      "bufferView": 2,
      "componentType": 5126,
      "count": 92,
      "max": [
        1820.9244384765625,
        11264.94921875,
        1026.7950439453125
      ],
      "min": [
        950.53546142578125,
        10897.12109375,
        782.95501708984375
      ],
      "type": "VEC3"
    },
    {
      "bufferView": 2,
      "byteOffset": 1104,
      "componentType": 5126,
      "count": 92,
      "max": [
        0.99949544668197632,
        0.99750667810440063,
        1
      ],
      "min": [
        -0.99949520826339722,
        -0.99949556589126587,
        -1
      ],
      "type": "VEC3"
    },
    {
      "bufferView": 3,
      "componentType": 5126,
      "count": 92,
      "max": [
        0.99750542640686035,
        0.99923187494277954,
        1,
        1
      ],
      "min": [
        -0.99949550628662109,
        -0.9073261022567749,
        -3.4941399274825147e-13,
        1
      ],
      "type": "VEC4"
    },
    {
      "bufferView": 1,
      "componentType": 5126,
      "count": 92,
      "max": [
        0.93415987491607666,
        0.99000000953674316
      ],
      "min": [
        0.0099999997764825821,
        0.0099999997764825821
      ],
      "type": "VEC2"
    },
    {
      "bufferView": 0,
      "componentType": 5125,
      "count": 138,
      "max": [
        91
      ],
      "min": [
        0
      ],
      "type": "SCALAR"
    },
    {
      "bufferView": 2,
      "byteOffset": 2208,
      "componentType": 5126,
      "count": 6450,
      "max": [
        4468.8642578125,
        13671.9677734375,
        1621.155029296875
      ],
      "min": [
        322.31195068359375,
        9715.0009765625,
        782.95318603515625
      ],
      "type": "VEC3"
    },
    {
      "bufferView": 2,
      "byteOffset": 79608,
      "componentType": 5126,
      "count": 6450,
      "max": [
        1,
        1,
        1
      ],
      "min": [
        -1,
        -1,
        -1
      ],
      "type": "VEC3"
    },
    {
      "bufferView": 3,
      "byteOffset": 1472,
      "componentType": 5126,
      "count": 6450,
      "max": [
        1,
        1,
        1,
        1
      ],
      "min": [
        -1,
        -1,
        -1,
        -1
      ],
      "type": "VEC4"
    },
    {
      "bufferView": 1,
      "byteOffset": 736,
      "componentType": 5126,
      "count": 6450,
      "max": [
        0.99773192405700684,
        0.997001051902771
      ],
      "min": [
        0.0024980001617223024,
        0.0024980001617223024
      ],
      "type": "VEC2"
    },
    {
      "bufferView": 0,
      "byteOffset": 552,
      "componentType": 5125,
      "count": 8874,
      "max": [
        6449
      ],
      "min": [
        0
      ],
      "type": "SCALAR"
    },
    {
      "bufferView": 2,
      "byteOffset": 157008,
      "componentType": 5126,
      "count": 552,
      "max": [
        3935.09375,
        12102.8828125,
        1614.4046630859375
      ],
      "min": [
        374.78732299804688,
        10923.220703125,
        782.95501708984375
      ],
      "type": "VEC3"
    },
    {
      "bufferView": 2,
      "byteOffset": 163632,
      "componentType": 5126,
      "count": 552,
      "max": [
        1,
        0.99961453676223755,
        1
      ],
      "min": [
        -1,
        -0.99961483478546143,
        -1
      ],
      "type": "VEC3"
    },
    {
      "bufferView": 3,
      "byteOffset": 104672,
      "componentType": 5126,
      "count": 552,
      "max": [
        1,
        1,
        0.21954648196697235,
        1
      ],
      "min": [
        -0.99999654293060303,
        -1,
        -0.22035780549049377,
        -1
      ],
      "type": "VEC4"
    },
    {
      "bufferView": 0,
      "byteOffset": 36048,
      "componentType": 5125,
      "count": 612,
      "max": [
        551
      ],
      "min": [
        0
      ],
      "type": "SCALAR"
    },
    {
      "bufferView": 2,
      "byteOffset": 170256,
      "componentType": 5126,
      "count": 696,
      "max": [
        2282.68701171875,
        2141.42431640625,
        101.79489135742188
      ],
      "min": [
        -2282.68701171875,
        -2141.42431640625,
        0
      ],
      "type": "VEC3"
    },
    {
      "bufferView": 2,
      "byteOffset": 178608,
      "componentType": 5126,
      "count": 696,
      "max": [
        1,
        1,
        1
      ],
      "min": [
        -1,
        -1,
        -1
      ],
      "type": "VEC3"
    },
    {
      "bufferView": 3,
      "byteOffset": 113504,
      "componentType": 5126,
      "count": 696,
      "max": [
        0.87135666608810425,
        1,
        0.8718181848526001,
        1
      ],
      "min": [
        -0.8715670108795166,
        -1,
        -1,
        1
      ],
      "type": "VEC4"
    },
    {
      "bufferView": 1,
      "byteOffset": 52336,
      "componentType": 5126,
      "count": 696,
      "max": [
        1.0006393194198608,
        0.99900001287460327
      ],
      "min": [
        0.0010000000474974513,
        0.0045378981158137321
      ],
      "type": "VEC2"
    },
    {
      "bufferView": 0,
      "byteOffset": 38496,
      "componentType": 5125,
      "count": 2916,
      "max": [
        695
      ],
      "min": [
        0
      ],
      "type": "SCALAR"
    },
    {
      "bufferView": 2,
      "byteOffset": 186960,
      "componentType": 5126,
      "count": 104,
      "max": [
        4468.8642578125,
        13671.9677734375,
        1040.43896484375
      ],
      "min": [
        322.31195068359375,
        9715.0009765625,
        652.74932861328125
      ],
      "type": "VEC3"
    },
    {
      "bufferView": 2,
      "byteOffset": 188208,
      "componentType": 5126,
      "count": 104,
      "max": [
        1,
        1,
        1.0967974084508114e-08
      ],
      "min": [
        -1,
        -1,
        -5.4507682989424211e-07
      ],
      "type": "VEC3"
    },
    {
      "bufferView": 3,
      "byteOffset": 124640,
      "componentType": 5126,
      "count": 104,
      "max": [
        1,
        1,
        5.0194739742437378e-07,
        1
      ],
      "min": [
        -1,
        -1,
        -4.8977665301208617e-07,
        1
      ],
      "type": "VEC4"
    },
    {
      "bufferView": 1,
      "byteOffset": 57904,
      "componentType": 5126,
      "count": 104,
      "max": [
        0.98684531450271606,
        0.71397274732589722
      ],
      "min": [
        0.011959999799728394,
        0.011959998868405819
      ],
      "type": "VEC2"
    },
    {
      "bufferView": 0,
      "byteOffset": 50160,
      "componentType": 5125,
      "count": 156,
      "max": [
        103
      ],
      "min": [
        0
      ],
      "type": "SCALAR"
    },
    {
      "bufferView": 2,
      "byteOffset": 189456,
      "componentType": 5126,
      "count": 104,
      "max": [
        4468.8642578125,
        13671.9677734375,
        1057.2750244140625
      ],
      "min": [
        322.31195068359375,
        9715.0009765625,
        756.802734375
      ],
      "type": "VEC3"
    },
    {
      "bufferView": 2,
      "byteOffset": 190704,
      "componentType": 5126,
      "count": 104,
      "max": [
        1,
        1,
        0
      ],
      "min": [
        -1,
        -1,
        0
      ],
      "type": "VEC3"
    },
    {
      "bufferView": 3,
      "byteOffset": 126304,
      "componentType": 5126,
      "count": 104,
      "max": [
        0.99930208921432495,
        1,
        0.19119100272655487,
        1
      ],
      "min": [
        -1,
        -1,
        -0.076504886150360107,
        1
      ],
      "type": "VEC4"
    },
    {
      "bufferView": 0,
      "byteOffset": 50784,
      "componentType": 5125,
      "count": 156,
      "max": [
        103
      ],
      "min": [
        0
      ],
      "type": "SCALAR"
    }
  ],
  "asset": {
    "extras": {
      "author": "fantecboisseau (https://sketchfab.com/fantecboisseau)",
      "license": "CC-BY-4.0 (http://creativecommons.org/licenses/by/4.0/)",
      "source": "https://sketchfab.com/models/e9286d982bb445d7a0d82558160db0c1",
      "title": "MOBIUS HOUSE"
    },
    "generator": "Sketchfab-3.17.1",
    "version": "2.0"
  },
  "bufferViews": [
    {
      "buffer": 0,
      "byteLength": 51408,
      "byteOffset": 0,
      "name": "floatBufferViews",
      "target": 34963
    },
    {
      "buffer": 0,
      "byteLength": 58736,
      "byteOffset": 51408,
      "byteStride": 8,
      "name": "floatBufferViews",
      "target": 34962
    },
    {
      "buffer": 0,
      "byteLength": 191952,
      "byteOffset": 110144,
      "byteStride": 12,
      "name": "floatBufferViews",
      "target": 34962
    },
    {
      "buffer": 0,
      "byteLength": 127968,
      "byteOffset": 302096,
      "byteStride": 16,
      "name": "floatBufferViews",
      "target": 34962
    }
  ],
  "buffers": [
    {
      "byteLength": 430064,
      "uri": "scene.bin"
    }
  ],
  "images": [
    {
      "uri": "textures/BATI_APPART_baseColor.jpg"
    },
    {
      "uri": "textures/BATI_baseColor.jpg"
    },
    {
      "uri": "textures/SOCLE_baseColor.jpg"
    },
    {
      "uri": "textures/BAKE.TERRE_baseColor.jpg"
    },
    {
      "uri": "textures/BAKE.TERRE_normal.jpg"
    }
  ],
  "materials": [
    {
      "doubleSided": true,
      "emissiveFactor": [
        0,
        0,
        0
      ],
      "name": "BATI_APPART",
      "pbrMetallicRoughness": {
        "baseColorFactor": [
          1,
          1,
          1,
          1
        ],
        "baseColorTexture": {
          "index": 0,
          "texCoord": 0
        },
        "metallicFactor": 0,
        "roughnessFactor": 0.59999999999999998
      }
    },
    {
      "doubleSided": true,
      "emissiveFactor": [
        0,
        0,
        0
      ],
      "name": "BATI",
      "pbrMetallicRoughness": {
        "baseColorFactor": [
          1,
          1,
          1,
          1
        ],
        "baseColorTexture": {
          "index": 1,
          "texCoord": 0
        },
        "metallicFactor": 0,
        "roughnessFactor": 0.59999999999999998
      }
    },
    {
      "alphaMode": "BLEND",
      "doubleSided": true,
      "emissiveFactor": [
        0,
        0,
        0
      ],
      "name": "VITRES",
      "pbrMetallicRoughness": {
        "baseColorFactor": [
          0.076462608239999993,
          0.18032627664000001,
          0.22274260830000001,
          0.050000000000000003
        ],
        "metallicFactor": 0,
        "roughnessFactor": 0.59999999999999998
      }
    },
    {
      "doubleSided": true,
      "emissiveFactor": [
        0,
        0,
        0
      ],
      "name": "SOCLE",
      "pbrMetallicRoughness": {
        "baseColorFactor": [
          0.72999999999999998,
          0.72999999999999998,
          0.72999999999999998,
          1
        ],
        "baseColorTexture": {
          "index": 2,
          "texCoord": 0
        },
        "metallicFactor": 0,
        "roughnessFactor": 0.59999999999999998
      }
    },
    {
      "doubleSided": true,
      "emissiveFactor": [
        0,
        0,
        0
      ],
      "name": "BAKE.TERRE",
      "normalTexture": {
        "index": 4,
        "scale": 1,
        "texCoord": 0
      },
      "pbrMetallicRoughness": {
        "baseColorFactor": [
          0.54000000000000004,
          0.54000000000000004,
          0.54000000000000004,
          1
        ],
        "baseColorTexture": {
          "index": 3,
          "texCoord": 0
        },
        "metallicFactor": 0,
        "roughnessFactor": 0.59999999999999998
      }
    },
    {
      "doubleSided": true,
      "emissiveFactor": [
        0,
        0,
        0
      ],
      "name": "BAKE.TRAIT_COUPE",
      "pbrMetallicRoughness": {
        "baseColorFactor": [
          0.0038175728999999999,
          0.0037043686999999998,
          0.0037043686999999998,
          1
        ],
        "metallicFactor": 0,
        "roughnessFactor": 0.59999999999999998
      }
    }
  ],
  "meshes": [
    {
      "name": "BATI_APPART_BATI_APPART_0",
      "primitives": [
        {
          "attributes": {
            "NORMAL": 1,
            "POSITION": 0,
            "TANGENT": 2,
            "TEXCOORD_0": 3
          },
          "indices": 4,
          "material": 0,
          "mode": 4
        }
      ]
    },
    {
      "name": "BATI_BATI_0",
      "primitives": [
        {
          "attributes": {
            "NORMAL": 6,
            "POSITION": 5,
            "TANGENT": 7,
            "TEXCOORD_0": 8
          },
          "indices": 9,
          "material": 1,
          "mode": 4
        }
      ]
    },
    {
      "name": "VITRES_VITRES_0",
      "primitives": [
        {
          "attributes": {
            "NORMAL": 11,
            "POSITION": 10,
            "TANGENT": 12
          },
          "indices": 13,
          "material": 2,
          "mode": 4
        }
      ]
    },
    {
      "name": "SOCLE_SOCLE_0",
      "primitives": [
        {
          "attributes": {
            "NORMAL": 15,
            "POSITION": 14,
            "TANGENT": 16,
            "TEXCOORD_0": 17
          },
          "indices": 18,
          "material": 3,
          "mode": 4
        }
      ]
    },
    {
      "name": "COUPE_TERRAIN_BAKE.TERRE_0",
      "primitives": [
        {
          "attributes": {
            "NORMAL": 20,
            "POSITION": 19,
            "TANGENT": 21,
            "TEXCOORD_0": 22
          },
          "indices": 23,
          "material": 4,
          "mode": 4
        }
      ]
    },
    {
      "name": "COUPE_TERRAIN_BAKE.TRAIT_COUPE_0",
      "primitives": [
        {
          "attributes": {
            "NORMAL": 25,
            "POSITION": 24,
            "TANGENT": 26
          },
          "indices": 27,
          "material": 5,
          "mode": 4
        }
      ]
    }
  ],
  "nodes": [
    {
      "children": [
        1
      ],
      "name": "RootNode (gltf orientation matrix)",
      "rotation": [
        -0.70710678118654746,
        -0,
        -0,
        0.70710678118654757
      ]
    },
    {
      "children": [
        2
      ],
      "name": "RootNode (model correction matrix)"
    },
    {
      "children": [
        3
      ],
      "matrix": [
        1,
        0,
        0,
        0,
        0,
        0,
        1,
        0,
        0,
        -1,
        0,
        0,
        0,
        0,
        0,
        1
      ],
      "name": "c61b2ff2eee54a01b7ed8ce07bebf206.fbx"
    },
    {
      "children": [
        4,
        6,
        9,
        12,
        14
      ],
      "name": "RootNode"
    },
    {
      "children": [
        5
      ],
      "matrix": [
        1,
        0,
        0,
        0,
        0,
        2.2204460492503131e-16,
        -1,
        0,
        0,
        1,
        2.2204460492503131e-16,
        0,
        -2162.324462890625,
        -759.796142578125,
        10882.6328125,
        1
      ],
      "name": "BATI_APPART"
    },
    {
      "mesh": 0,
      "name": "BATI_APPART_BATI_APPART_0"
    },
    {
      "children": [
        7
      ],
      "matrix": [
        1,
        0,
        0,
        0,
        0,
        2.2204460492503131e-16,
        -1,
        0,
        0,
        1,
        2.2204460492503131e-16,
        0,
        233.26318359375,
        442.2589111328125,
        -810.85107421875,
        1
      ],
      "name": "BATI"
    },
    {
      "children": [
        8
      ],
      "matrix": [
        1,
        0,
        -0,
        0,
        0,
        1,
        0,
        0,
        0,
        0,
        1,
        0,
        -2395.588134765625,
        -11693.484375,
        -1202.0550537109375,
        1
      ],
      "name": ""
    },
    {
      "mesh": 1,
      "name": "BATI_BATI_0"
    },
    {
      "children": [
        10
      ],
      "matrix": [
        1,
        0,
        0,
        0,
        0,
        2.2204460492503131e-16,
        -1,
        0,
        0,
        1,
        2.2204460492503131e-16,
        0,
        233.26318359375,
        442.2589111328125,
        -810.85107421875,
        1
      ],
      "name": "VITRES"
    },
    {
      "children": [
        11
      ],
      "matrix": [
        1,
        0,
        -0,
        0,
        0,
        1,
        0,
        0,
        0,
        0,
        1,
        0,
        -2395.588134765625,
        -11693.484375,
        -1202.0550537109375,
        1
      ],
      "name": ""
    },
    {
      "mesh": 2,
      "name": "VITRES_VITRES_0"
    },
    {
      "children": [
        13
      ],
      "matrix": [
        1,
        0,
        0,
        0,
        0,
        2.2204460492503131e-16,
        -1,
        0,
        0,
        1,
        2.2204460492503131e-16,
        0,
        200.1746826171875,
        -120.986572265625,
        -757.9161376953125,
        1
      ],
      "name": "SOCLE"
    },
    {
      "mesh": 3,
      "name": "SOCLE_SOCLE_0"
    },
    {
      "children": [
        15
      ],
      "matrix": [
        1,
        0,
        0,
        0,
        0,
        2.2204460492503131e-16,
        -1,
        0,
        0,
        1,
        2.2204460492503131e-16,
        0,
        233.26318359375,
        442.2589111328125,
        -810.85107421875,
        1
      ],
      "name": "COUPE_TERRAIN"
    },
    {
      "children": [
        16,
        17
      ],
      "matrix": [
        1,
        0,
        -0,
        0,
        0,
        1,
        0,
        0,
        0,
        0,
        1,
        0,
        -2395.588134765625,
        -11693.484375,
        -1202.0550537109375,
        1
      ],
      "name": ""
    },
    {
      "mesh": 4,
      "name": "COUPE_TERRAIN_BAKE.TERRE_0"
    },
    {
      "mesh": 5,
      "name": "COUPE_TERRAIN_BAKE.TRAIT_COUPE_0"
    }
  ],
  "samplers": [
    {
      "magFilter": 9729,
      "minFilter": 9987,
      "wrapS": 10497,
      "wrapT": 10497
    }
  ],
  "scene": 0,
  "scenes": [
    {
      "name": "OSG_Scene",
      "nodes": [
        0
      ]
    }
  ],
  "textures": [
    {
      "sampler": 0,
      "source": 0
    },
    {
      "sampler": 0,
      "source": 1
    },
    {
      "sampler": 0,
      "source": 2
    },
    {
      "sampler": 0,
      "source": 3
    },
    {
      "sampler": 0,
      "source": 4
    }
  ]
}

